<svg xmlns="http://www.w3.org/2000/svg" viewBox="0 0 344.06 363"><defs><style>.cls-1{fill:#fefefe;}.cls-2{fill:#f26821;}.cls-3{fill:#107c3e;}.cls-4{fill:#415862;}.cls-5{fill:#405761;}.cls-6{fill:#425862;}.cls-7{fill:#445a64;}.cls-8{fill:#415861;}.cls-9{fill:#455c65;}.cls-10{fill:#f28b24;}.cls-11{fill:#f28c25;}.cls-12{fill:#f28b25;}.cls-13{fill:#f28d28;}.cls-14{fill:#fdf5ed;}.cls-15{fill:#f39436;}.cls-16{fill:#fadfc3;}.cls-17{fill:#f28c26;}.cls-18{fill:#f3902e;}.cls-19{fill:#fefbf9;}.cls-20{fill:#fdf4ec;}.cls-21{fill:#fdf8f2;}.cls-22{fill:#f39231;}.cls-23{fill:#fefbf8;}.cls-24{fill:#fcf0e3;}.cls-25{fill:#fcefe3;}.cls-26{fill:#f39132;}.cls-27{fill:#f39335;}.cls-28{fill:#fdf3e9;}.cls-29{fill:#fefaf6;}.cls-30{fill:#fef9f6;}.cls-31{fill:#fdf3ea;}.cls-32{fill:#fce7d7;}.cls-33{fill:#fceee4;}.cls-34{fill:#fdf4ee;}.cls-35{fill:#f39336;}.cls-36{fill:#f59f5e;}.cls-37{fill:#fadbc1;}.cls-38{fill:#f7b385;}.cls-39{fill:#fad5b4;}.cls-40{fill:#fbe4d0;}.cls-41{fill:#fadabe;}.cls-42{fill:#f59965;}.cls-43{fill:#169246;}.cls-44{fill:#f8fbf9;}.cls-45{fill:#f2f8f4;}.cls-46{fill:#f2f8f5;}.cls-47{fill:#f3f9f5;}.cls-48{fill:#eef6f1;}.cls-49{fill:#ebf5ef;}.cls-50{fill:#e5f2ea;}.cls-51{fill:#e6f1eb;}.cls-52{fill:#2b9b56;}.cls-53{fill:#c2e1ce;}.cls-54{fill:#419c65;}.cls-55{fill:#78bc92;}.cls-56{fill:#fdf7f1;}.cls-57{fill:#fefaf7;}.cls-58{fill:#fceedf;}.cls-59{fill:#fdf6ef;}.cls-60{fill:#fdf2e7;}.cls-61{fill:#fcecdd;}.cls-62{fill:#fcedde;}.cls-63{fill:#fceddf;}.cls-64{fill:#fce7d5;}.cls-65{fill:#fdf2e8;}.cls-66{fill:#fdf1e6;}.cls-67{fill:#f7fbf9;}.cls-68{fill:#f1f8f4;}.cls-69{fill:#f7fbf8;}.cls-70{fill:#f1f8f3;}.cls-71{fill:#f4f9f6;}.cls-72{fill:#e9f4ed;}.cls-73{fill:#e7f3ec;}.cls-74{fill:#e9f4ee;}.cls-75{fill:#f6faf8;}.cls-76{fill:#e6f3eb;}.cls-77{fill:#ecf6f0;}.cls-78{fill:#eef7f1;}.cls-79{fill:#f3f9f6;}.cls-80{fill:#eff7f2;}.cls-81{fill:#f5faf7;}.cls-82{fill:#249951;}.cls-83{fill:#249851;}.cls-84{fill:#1b954a;}.cls-85{fill:#1d964c;}.cls-86{fill:#1d954b;}.cls-87{fill:#279a53;}.cls-88{fill:#20974e;}.cls-89{fill:#169346;}.cls-90{fill:#1e974d;}.cls-91{fill:#2d9d58;}.cls-92{fill:#1c954a;}</style></defs><title>sih</title><g id="Layer_2" data-name="Layer 2"><g id="Layer_1-2" data-name="Layer 1"><path class="cls-1" d="M344.06,363H0V0H344.06ZM74.8,113.51c-1.55,1.55-2.47,3.07-3.81,3.7-6,2.81-7.72,8.65-8.88,14.07a20.1,20.1,0,0,0,4.63,17.88c.38.44.36,1.25.5,1.78-4,5.31-5.37,9.4-5.35,15.79a22.87,22.87,0,0,0,8.47,17.45c1.72,1.34,3.53,2.56,5.15,3.72-1.21,13.33.63,15.1,3.25,19.09,3.84,5.83,9.92,8.64,16.55,10.3,1.08,7.41,4.13,13.68,10.42,17.64s13.52,4.23,20.57,2.07c1.14,1.15,2.17,2.1,3.11,3.13,2.71,3,6.48,3.62,10,5,2.07.79,3.14-.39,4.63-.69,7.58-1.52,9.06-3.6,12.12-10.74A32.8,32.8,0,0,0,158.36,221c.09-12.76.23-25.52,0-38.27s1.19-25.28-1-37.84q0-35.39,0-70.77c0-4.21-.06-8.29-2-12.28a19,19,0,0,0-5.48-7.3c-3.4-2.69-7.18-3.34-11.32-3.11-6,.33-10.4,3.08-13.35,8.66-1.8.25-3.74.63-5.71.76-2.25.15-4.61-.32-6.77.17-7.55,1.69-14.66,9.32-16.21,17-.33,1.59-.75,3.16-1.08,4.56-4.29,2.21-9.38,1.62-12.8,5.3s-7,6.63-8.27,11.81A24.3,24.3,0,0,0,74.8,113.51Zm190.45,15.56a28.44,28.44,0,0,0-12.49-15.14c3.43-12.13.55-27.4-20.82-31.38a23.39,23.39,0,0,0-8.82-17.25c-5.57-4.7-12.28-4.9-19-4.35-3.82-3.58-6.86-7.85-12.56-9.54a25,25,0,0,1-4.63,0c-5.85-1-13.13,5.71-14.64,9.85A34.27,34.27,0,0,0,170,72.8q-.09,77.31,0,154.63a10,10,0,0,0,.23,3c1.93,5.83,4.88,10.93,10.64,13.66l6.37,1.17c.65-.26,1.42-.86,2.14-.81a8.52,8.52,0,0,0,6.44-2.24c2.17-1.82,4.49-3.47,6.75-5.21,4.45,1.23,8.77,1.9,13.33.12,5-2,8.52-4.13,10.78-6.79,3-3.5,5.2-7.22,5.4-11.83l2.42-2.43a10.08,10.08,0,0,0,2.95,0c8.2-2.52,15.39-12.39,15.41-21,0-2.75,0-5.5,0-8.18,6.18-3.32,9.91-8.35,12.59-15.15.54-14.82-.09-11.84-5.15-21.12,1.39-2.31,3.05-4.43,4-6.83s1.11-5.11,1.88-7.61C267,133.44,264.14,131.16,265.25,129.07Zm-55.46,133a7.32,7.32,0,0,0,0-.85c-.11-4.18-1-4.92-5-6.76a9.69,9.69,0,0,0-4.46-.57q-33.51-.09-67,0c-5.75,0-7.18,1-9.58,6.79,2.3,5.74,3.83,6.85,9.53,6.85,22.68,0,45.36-.06,68,.05C205.27,267.6,208.24,266.67,209.79,262.11Zm-15.2,51.58H144.31c-2.35,0-4.74-.25-6.48,1.2l-2.69,5.39c1.5,2,3.1,4.09,4.56,6,17,0,33.56-.07,50.13.05,3.91,0,6.89-.92,8.42-5.45V317.4Zm-2.66-9.18,1.35,1.62h5.9V274.05h-7.33v12.11h-9.49v-12.4c-2.52.23-4.89-.23-7.18.32v30.69l1.43,1.44h6V291.82h9.29ZM154,283.16v-7.94l-1.4-1.4c-6,0-12.09,0-18.18,0a13.31,13.31,0,0,0-3.21.87v10.76l15.43,9.88V302h-8.08V296.5L137.06,295h-5.85v9.95c6.38,2.51,12.95,1,19.16,1.47l3.82-2.49V293.74L138.6,283.66v-5.4H147v4.9Zm88.08-51.39,23.1,23.1h5.25l2.55-4.33a61.52,61.52,0,0,0-4.09-5.14c-5.49-5.61-11.08-11.13-16.62-16.68-1.55-1.55-3-3.2-5.74-3.17l-3.26,1.63ZM269.63,44.06c-4.91,0-6.15.37-8.38,2.59-5.82,5.76-11.59,11.58-17.39,17.36-1.59,1.59-2.64,3.4-2.63,4.7L246,73.45c1.77-.14,3.47-1.38,5-3,6.88-6.91,13.79-13.79,21-21C271.29,47.83,270.51,46.07,269.63,44.06Zm41.64,110.16,3.4-4.66c-.24-.26-.57-.47-.65-.76-.28-.93-.47-1.89-.77-3.16a41.9,41.9,0,0,0-5.75-.82c-9.22-.09-18.44,0-27.65,0a9.13,9.13,0,0,0-1,.06l-3.32,2.78c.56,1.91,1.12,3.77,1.71,5.76a49.34,49.34,0,0,0,6,.81C292.5,154.27,301.72,154.22,311.27,154.22ZM50.08,145.83H47.14c-8.7,0-17.4-.06-26.09,0a26,26,0,0,0-5,1l-1.59,4.08L17,155.27c10.38,0,20.62.06,30.86-.06a15.54,15.54,0,0,0,4.2-1.12l1.17-3.93ZM163.77,1.89l-4.2,2.49v34c3.22,1.48,3.22,1.48,7.14,1.22l2.1-3.58V5.38ZM147.83,330.72c1.19,2.38,6.36,8.09,8.24,9.2,3.23,1.89,6.3,2.25,17.47,2.05,4.73-3,10.61-4.74,12.2-11.25ZM56.68,50.92c6.56,6.56,13.05,13.13,19.65,19.6a61.88,61.88,0,0,0,5.25,4.2c3.71-2.12,3.71-2.12,5.6-5.89a48.45,48.45,0,0,0-4-5C77,57.89,70.71,52,64.45,46.1c-.37-.35-.75-.68-1-.93h-4l-2.78,2.48ZM63.3,256,88,231.25c-1-1.35-2.2-3.09-3.29-4.6H81.26l-7.43,7.43c-2.46,2.46-4.87,5-7.41,7.37s-4.4,5.28-7.72,6.69l-1.21,5c1.13,1.16,2,2,2.81,2.88Zm98.59,50.19h6.76V272.36c-2.76,1.25-5.8-1-8.07,1.93v30.57Z" transform="translate(0)"/><path class="cls-2" d="M74.8,113.51a24.3,24.3,0,0,1-.45-13.88c1.28-5.18,5-8.26,8.27-11.81s8.51-3.09,12.8-5.3c.33-1.4.75-3,1.08-4.56,1.55-7.65,8.66-15.28,16.21-17,2.16-.49,4.52,0,6.77-.17,2-.13,3.91-.51,5.71-.76,2.95-5.58,7.36-8.33,13.35-8.66,4.14-.23,7.92.42,11.32,3.11a19,19,0,0,1,5.48,7.3c2,4,2,8.07,2,12.28q0,35.39,0,70.77c2.19,12.56.75,25.23,1,37.84s.11,25.51,0,38.27a32.8,32.8,0,0,1-2.19,12.71c-3.06,7.14-4.54,9.22-12.12,10.74-1.49.3-2.56,1.48-4.63.69-3.53-1.36-7.3-2-10-5-.94-1-2-2-3.11-3.13-7,2.16-14.17,2-20.57-2.07s-9.34-10.23-10.42-17.64c-6.63-1.66-12.71-4.47-16.55-10.3-2.62-4-4.46-5.76-3.25-19.09-1.62-1.16-3.43-2.38-5.15-3.72a22.87,22.87,0,0,1-8.47-17.45c0-6.39,1.35-10.48,5.35-15.79-.14-.53-.12-1.34-.5-1.78a20.1,20.1,0,0,1-4.63-17.88C63.27,125.86,65,120,71,117.21,72.33,116.58,73.25,115.06,74.8,113.51Zm50-45.32c-.09-1.57-1.31-.89-2.1-1-1.25-.11-2.53.31-3.68-.87-.38-.39-2.28-1-2.61.87-2,.42-4,.81-6,1.28-.17,0-.23.54-.34.82l-1,1.05c-3.18,1.53-4,5.08-6.27,7.39-.17.17,0,.66,0,1,0,3.88-.4,7.8,1,11.55H100.7c-.76-.24-1.51-.51-2.28-.7s-1.28-.24-1.92-.35h-1l-1,1c-1.33,0-2.67-.09-4,0-.45,0-.84.65-1.26,1h-1c-1.74,1.92-3.52,3.79-5.19,5.76-.83,1-2.14,2.23-2,3.19.3,2.17-1.37,3.74-1.19,5.74-.17,2.7,1.19,5,2.1,7.35l4.41,5.24c-1.93,0-3.58-.07-5.22,0-.45,0-.86.65-1.29,1-1.94.89-3.7,2.24-6,2.33-.12,0-.22.53-.33.82-1.93.25-.61,1.86-1.13,2.68-.67,1-2.27,1.47-2,3.12a4,4,0,0,1,0,.49,2.58,2.58,0,0,0-2.1,3.15c-.32,5.64,2,10.33,5.25,14.69l2.1,1.05a4.81,4.81,0,0,0,4.19,2.1v1.05c-2.56.11-4.48,1.51-6.29,3.14-2.14,2.41-3.14,5.37-4.3,8.31-.7,1.79-1.41,3.63-.86,5.29,1.23,3.71,2.4,7.53,5.16,10.53.11.29.21.81.33.82,2.26.09,4,1.44,6,2.33l2.1,1.05H85c-.24.76-.45,1.52-.71,2.27-.91,2.71-3.19,5-2.44,8.22-1.4,0-1,1.07-1,1.82,0,1.74,1.11,4.28,3.13,7.62v1.05c.84.67,1.68,1.32,2.51,2l2.73,2.21c.09,1.57,1.3.89,2.1,1.05l3.15,1.05,2.09,1,5.25-1,1,1v11.54l7.34,7.34c.11.29.17.79.34.83,2,.46,4,.85,6,1.27h2.09a8.32,8.32,0,0,0,6.3-2.1h1l3.78-3c1.24.58-.68,2.81,1.46,3a5.63,5.63,0,0,0,1,4.2c2.34,3.21,5.62,4.32,9.44,4.19a8.24,8.24,0,0,0,6.29-2.1v-1a14.4,14.4,0,0,0,3.15-8.81c0-10.42,0-20.84,0-31.26,0-2-.5-4,.9-5.91.38-.53,1.1-2.71-.93-3.33.06-2.6-.36-5.22,1-7.69.3-.55.37-1.76-1-1.76v-1c.14-2.09-.36-4.19.93-6.22.37-.58,1.1-2.66-.93-3.23.06-2.59-.36-5.22,1-7.68.3-.55.37-1.76-1-1.76.06-2.59-.36-5.22,1-7.69.3-.54.37-1.75-1-1.75v-1c0-7.43,0-14.86,0-22.29,0-2-.5-4,.9-5.87.38-.52,1.1-2.7-.93-3.31.23-2.41-.55-4.89.93-7.25.37-.6,1.1-2.67-.93-3.25.4-1.88-.54-3.8.8-5.79.67-1,1.22-3.44-.8-4.7.23-2.41-.55-4.88.93-7.25.37-.59,1.1-2.66-.93-3.24a12.78,12.78,0,0,1-3.21-9.59c.29-4.13.06-8.29.06-12.44l-1-1.05h-1.05c-1.82-.52-3.15-2.28-5.25-2.1h-2.1a12.69,12.69,0,0,0-3,1.1c-1.08.73-2.86.33-3.3,2.05l-1,2.1c-2.15,2-2,4.75-2.24,7.44l-3-2.2Z" transform="translate(0)"/><path class="cls-3" d="M265.25,129.07c-1.11,2.09,1.74,4.37.89,7.14-.77,2.5-.91,5.22-1.88,7.61s-2.63,4.52-4,6.83c5.06,9.28,5.69,6.3,5.15,21.12-2.68,6.8-6.41,11.83-12.59,15.15,0,2.68,0,5.43,0,8.18,0,8.59-7.21,18.46-15.41,21a10.08,10.08,0,0,1-2.95,0L232,218.55c-.2,4.61-2.42,8.33-5.4,11.83-2.26,2.66-5.75,4.83-10.78,6.79-4.56,1.78-8.88,1.11-13.33-.12-2.26,1.74-4.58,3.39-6.75,5.21a8.52,8.52,0,0,1-6.44,2.24c-.72-.05-1.49.55-2.14.81l-6.37-1.17c-5.76-2.73-8.71-7.83-10.64-13.66a10,10,0,0,1-.23-3q0-77.33,0-154.63a34.27,34.27,0,0,1,2.36-11.59c1.51-4.14,8.79-10.82,14.64-9.85a25,25,0,0,0,4.63,0c5.7,1.69,8.74,6,12.56,9.54,6.68-.55,13.39-.35,19,4.35a23.39,23.39,0,0,1,8.82,17.25c21.37,4,24.25,19.25,20.82,31.38A28.44,28.44,0,0,1,265.25,129.07ZM224.48,77.64l-2.18-1.86c-.56-.41,1-2.11-1-2.34l-4.19-4.2c-3.88-2.93-8.4-2-12.73-2.1-.85,1.69-3.37.11-4.06,2.1h-1c.12-2-1.6-3.19-2-4.83-.86-3.44-3.38-4.69-6.17-6.12-1.9-1-3.67-.22-5.45-.59-.8.16-2-.52-2.1,1l-4.62,4c-.78,2.13-1.6,3.34-1.61,4.55-.06,4.74-1.58,9.31-1.2,14.14.39,5,.09,10.06.09,15.09v115.4c0,2.27,0,4.53,0,6.79,0,4.06-.46,8.17,1.05,12.1,1.1,3.14,3.55,5.19,5.83,7.33h7.31a28.28,28.28,0,0,0,3.92-3,34.81,34.81,0,0,0,3.08-4.59v-4.43l4,2.57a9.24,9.24,0,0,0,.8,1,16.68,16.68,0,0,0,1.3,1.06c0,.17,0,.48,0,.5,4.82,1.42,10.63.45,15.72-2.6,1.69-.92,3.31-1.89,3.15-4.2,2.22-1.69,2.63-4.41,3-6.74s-.49-5.13-.85-8a21.16,21.16,0,0,1,2.72.23c.78.18,1.58.95,2.23.81,3-.64,6.25-.71,8.72-2.72,2-1.62,5-2.3,5.5-5.41,1.48-.08,2.05-.86,1.77-2.3a15.87,15.87,0,0,0,0-11.51c-.38-1-.7-2.11-1.05-3.17l-3.7-3a13.8,13.8,0,0,0,2.5-.14c2.93-.81,6.22-.73,8.64-2.79a62.11,62.11,0,0,0,5.15-5.58l1.05-1c.21-1,.43-2,.65-3l-1.59-.36V157.87l-3.26-3.65-5.33-3.56c6.74-4.65,6.53-1.79,11.44-15.29-.38-1.38-.62-2.28-.87-3.18v-2.1a28.54,28.54,0,0,0-6.69-8.21,11.34,11.34,0,0,0-3.77-2.22,58,58,0,0,0-6.33-1.31l2.11-2.95c3.85-4.15,3.11-9.28,3.12-14.31-1.83-1-1.08-3.72-3.12-4.57-1.17-2.59-3.46-4.1-5.83-5.16a20.94,20.94,0,0,0-7.88-2c-2.36,0-4.73,1.23-8.14,2.22a36.71,36.71,0,0,0,2.23-3.25,14.34,14.34,0,0,0,.74-2.27C226.28,83.09,224.36,80.49,224.48,77.64Z" transform="translate(0)"/><path class="cls-4" d="M209.79,262.11c-1.55,4.56-4.52,5.49-8.44,5.47-22.68-.11-45.36-.05-68-.05-5.7,0-7.23-1.11-9.53-6.85,2.4-5.76,3.83-6.79,9.58-6.79q33.49,0,67,0a9.69,9.69,0,0,1,4.46.57c4,1.84,4.86,2.58,5,6.76A7.32,7.32,0,0,1,209.79,262.11Z" transform="translate(0)"/><path class="cls-5" d="M194.59,313.69l3.66,3.71v3.48c-1.53,4.53-4.51,5.48-8.42,5.45-16.57-.12-33.15-.05-50.13-.05-1.46-1.91-3.06-4-4.56-6l2.69-5.39c1.74-1.45,4.13-1.2,6.48-1.2Z" transform="translate(0)"/><path class="cls-6" d="M191.93,304.51V291.82h-9.29v14.39h-6l-1.43-1.44V274.08c2.29-.55,4.66-.09,7.18-.32v12.4h9.49V274.05h7.33v32.08h-5.9Z" transform="translate(0)"/><path class="cls-6" d="M154,283.16h-7v-4.9H138.6v5.4l15.59,10.08v10.17l-3.82,2.49c-6.21-.51-12.78,1-19.16-1.47V295h5.85l1.52,1.52V302h8.08v-6.67l-15.43-9.88V274.73a13.31,13.31,0,0,1,3.21-.87c6.09-.08,12.19,0,18.18,0l1.4,1.4Z" transform="translate(0)"/><path class="cls-6" d="M242.1,231.77l1.19-4.59,3.26-1.63c2.7,0,4.19,1.62,5.74,3.17,5.54,5.55,11.13,11.07,16.62,16.68a61.52,61.52,0,0,1,4.09,5.14l-2.55,4.33H265.2Z" transform="translate(0)"/><path class="cls-6" d="M269.63,44.06c.88,2,1.66,3.77,2.4,5.47-7.2,7.18-14.11,14.06-21,21-1.57,1.57-3.27,2.81-5,3l-4.77-4.74c0-1.3,1-3.11,2.63-4.7,5.8-5.78,11.57-11.6,17.39-17.36C263.48,44.43,264.72,44.09,269.63,44.06Z" transform="translate(0)"/><path class="cls-4" d="M311.27,154.22c-9.55,0-18.77.05-28,0a49.34,49.34,0,0,1-6-.81c-.59-2-1.15-3.85-1.71-5.76l3.32-2.78a9.13,9.13,0,0,1,1-.06c9.21,0,18.43-.05,27.65,0a41.9,41.9,0,0,1,5.75.82c.3,1.27.49,2.23.77,3.16.08.29.41.5.65.76Z" transform="translate(0)"/><path class="cls-6" d="M50.08,145.83l3.16,4.33-1.17,3.93a15.54,15.54,0,0,1-4.2,1.12c-10.24.12-20.48.06-30.86.06l-2.54-4.34,1.59-4.08a26,26,0,0,1,5-1c8.69-.11,17.39,0,26.09,0Z" transform="translate(0)"/><path class="cls-6" d="M163.77,1.89l5,3.49V36l-2.1,3.58c-3.92.26-3.92.26-7.14-1.22v-34Z" transform="translate(0)"/><path class="cls-7" d="M147.83,330.72h37.91c-1.59,6.51-7.47,8.22-12.2,11.25-11.17.2-14.24-.16-17.47-2.05C154.19,338.81,149,333.1,147.83,330.72Z" transform="translate(0)"/><path class="cls-4" d="M56.68,50.92V47.65l2.78-2.48h4c.27.25.65.58,1,.93C70.71,52,77,57.89,83.21,63.87a48.45,48.45,0,0,1,4,5c-1.89,3.77-1.89,3.77-5.6,5.89a61.88,61.88,0,0,1-5.25-4.2C69.73,64.05,63.24,57.48,56.68,50.92Z" transform="translate(0)"/><path class="cls-8" d="M63.3,256h-3c-.83-.84-1.68-1.72-2.81-2.88l1.21-5c3.32-1.41,5.25-4.37,7.72-6.69s5-4.91,7.41-7.37l7.43-7.43h3.48c1.09,1.51,2.33,3.25,3.29,4.6Z" transform="translate(0)"/><path class="cls-9" d="M161.89,306.17l-1.31-1.31V274.29c2.27-2.9,5.31-.68,8.07-1.93v33.81Z" transform="translate(0)"/><path class="cls-10" d="M151.05,176.25c1.36,0,1.29,1.21,1,1.76-1.35,2.47-.93,5.09-1,7.69-3.21-2.69-6.59-5.19-9.57-8.11a88,88,0,0,0-9.31-7.63l-1-1.05-1.05-1-1-1.05-2.1-1.05-1-1-1-1.05-1-1c-2.44-2.27-5-4.47-7.3-6.83a14.79,14.79,0,0,0-5.29-3.67v-1l-1-1.05-1-1.05-1-1H107l-2.09-2.1c-.16-.8.52-2-1.05-2.1v-5.24c1.74-.18,1-1.54,1-2.38.06-9,0-18,0-27v-1l1-1v-2.1l-1-1-1.05-1h-1l-1,1c-2,.5-.65,2.12-1,3.15l1,1v68.19l-4.2,4.2-1,1.05-1,1.05-1,1c-3.5,2.57-7.09,5-9.92,8.38A2.73,2.73,0,0,1,81.82,193c-.75-3.2,1.53-5.51,2.44-8.22.26-.75.47-1.51.71-2.27h1l.34.87.7-.87,1-1.05c3.11-2.75,6.34-5.32,10.38-6.21v-3.91c-3-2-4.14-1.88-5.13.74-.8,2.11-.8,2.11-3.28,3.94.66-10.48-.9-20.8,1.22-30.84-2.89-1.83-2.89-1.83-5.71.62l2.52,6.83c0,6.45-.1,13.62,0,20.78A13.78,13.78,0,0,1,86,181.5c-.8.16-2-.52-2.1,1.05h-2.1c1.18-1.41,1.06-3.09,1.06-4.78q0-27.9,0-55.79c0-.81-.12-1.61-.19-2.38h-3c.43-.35.84-1,1.29-1,1.64-.12,3.29,0,5.22,0l-4.41-5.24a16.65,16.65,0,0,0,3-5l-2.64-3.67L79.72,106c-.18-2,1.49-3.57,1.19-5.74-.13-1,1.18-2.21,2-3.19,1.67-2,3.45-3.84,5.19-5.76q0,18.86,0,37.69c0,1.83.11,3.61-1,5.37-.81,1.33-.88,3.11-1.24,4.57l1.52,1.52h3.83c0-1.35.39-2.73-.07-3.7-1.57-3.29-.92-6.71-1-10.07-.08-11,0-22-.06-33,0-.84.74-2.21-1-2.4.42-.35.81-1,1.26-1,1.32-.13,2.66,0,4,0-.16,4.61,1.26,9,1.14,13.72-.29,12.22-.09,24.46-.09,36.69,0,2.09.13,4.2,0,6.28s-.66,3.91-1,5.86l-1,5.86c1.15,2.5,3.15,2,5.55,1.61-.48-2.68-1.25-5.12-1.3-7.56-.15-8.91.08-17.82-.09-26.73s-.7-17.53-1-26.3c-.11-3.49,0-7,0-10.48.64.11,1.29.19,1.92.35s1.52.46,2.28.7c.16.79-.52,2,1,2.09a10.68,10.68,0,0,0,.76,1c1.14-.69,2.88-.41,3.44-2.06a46.43,46.43,0,0,1-1-5.18c-.18-2,0-4.09-.06-6.13a4.76,4.76,0,0,0-.4-1.28H102.8c0-.34-.15-.83,0-1,2.27-2.31,3.09-5.86,6.27-7.39,0,8,.18,16.06,0,24.09-.32,11.55,1.14,23.15-1,34.65,0,.27.22.6.32.85l3,1.28L113,130c-.26-5.2-.65-9.76-.68-14.34-.08-14.66,0-29.32,0-44,0-.81-.11-1.62-.17-2.4h-1.92c.11-.28.17-.78.34-.82,2-.47,4-.86,6-1.28,0,2.26.15,4.52,0,6.76s-.75,4.41-1.12,6.42c3,1.84,3,1.84,5.78-.61l-2.25-6.14-.54.1V67.14h-1.82c.33-1.92,2.23-1.26,2.61-.87,1.15,1.18,2.43.76,3.68.87l1,1,.79,1,1.31-1,3,2.2c.23-2.69.09-5.47,2.24-7.44V86.21l19.93,21.38v-3.73c2,.58,1.3,2.65.93,3.25-1.48,2.36-.7,4.84-.93,7.25a10,10,0,0,1-1.62-1.13c-3.41-3.61-7-7-10.12-11-4.1-5.19-10-8.87-12.72-15.63l-3.74,1.45v3.59c1.14,2.46,3.2,1.34,4.62,1.79,2.8,2.25,3.78,5,3.71,8.54-.18,9.26-.08,18.52,0,27.78,0,.84-.75,2.21,1,2.4l4.2,4.2a13.89,13.89,0,0,0,1.87,2.35c4.11,3.41,8.28,6.74,12.81,10.41v-2.27c1.36,0,1.29,1.21,1,1.75-1.35,2.47-.93,5.1-1,7.69-2.84-2.32-5.89-4.43-8.47-7a84.23,84.23,0,0,0-10.41-8.74c-1-1.05-2-2.11-3.11-3.14-.68-.67-1.81-1.16-2.06-1.95a21.51,21.51,0,0,1-1.08-5.82c-.13-5.59-.07-11.17,0-16.76,0-4-.52-8.11,2-11.74.41-.58.09-1.71,0-2.58a2.53,2.53,0,0,0-.33-.8l-3.26-1.45-1.64,2a6.51,6.51,0,0,0,0,2.59c1.67,4.32.88,8.79,1,13.2.12,5.93.14,11.87,0,17.8a8.91,8.91,0,0,0,3.62,7.4,28.43,28.43,0,0,0,3.77,2.25c1,1.15,1.74,2.68,3,3.37,2.57,1.44,4.37,3.65,6.49,5.55,3,2.67,6.09,5.26,9.18,7.84.16.14.62-.09,1.29-.21v-1.86c1.36,0,1.29,1.21,1,1.76-1.35,2.46-.93,5.09-1,7.68a80.84,80.84,0,0,1-7.42-5.95,85.94,85.94,0,0,0-9.36-7.69c-1.71-1.53-3.39-3.1-5.14-4.59a62.63,62.63,0,0,0-5-4.23,12.18,12.18,0,0,1-5.71-11.23c.43-11,.13-22,.13-32.83,1.71-2,2.61-4.08,1.9-6.59-2.54-1.76-2.54-1.76-5.25.39a48.73,48.73,0,0,1,1.21,5.7c.21,2.25,0,4.54,0,6.81v33.07c1.71,1.83,3.61,4,5.66,6,.8.79,2.06,1.11,2.84,1.91a34.65,34.65,0,0,0,8.28,6.64c1.2,2.82,4.07,3.82,6.17,5.66,3.76,3.31,7.49,6.66,11.66,10.37v-3.44c2,.57,1.3,2.65.93,3.23-1.29,2-.79,4.13-.93,6.22a13.25,13.25,0,0,1-5.27-3.69,17.67,17.67,0,0,0-3.35-3.29c-4.3-2.72-7.73-6.48-11.63-9.68s-7.38-6.61-11.05-9.93c-.26-.23-.47-.59-.77-.67-3.28-1-4.39-3.8-5.71-6.48a16.47,16.47,0,0,0-1.76-2.29l-3.32,1.41v3.86c2.14,1.34,2.14,1.34,4.23,1.52a67.45,67.45,0,0,1,6.34,4.88c4.75,4.62,9.93,8.72,15,12.93,5.71,4.71,11.16,9.74,17.27,15.12Z" transform="translate(0)"/><path class="cls-11" d="M131.12,229.76c-2.14-.23-.22-2.46-1.46-3l-3.78,3v-61.9h1l4.2,3.49c0,6.7.06,13.17,0,19.64s.72,13-.81,17.84l1.3,3.44,3.81-1.92c-.12-1.1.18-2.62-.45-3.37-2.11-2.51-1.71-5.38-1.73-8.23,0-3.67,0-7.34,0-11V173.81l5.24,3.68c0,4.62-.33,9,.1,13.33s-1.63,8.3-1.08,12.4l2.22.93,3.46-2.39-2.42-5.26V180.58c2.88.6,4.19,2.55,5.12,5.08-.41,10.33.85,20.84-1.21,31l1.94,1.74,3.83-2-2.27-5c0-8.32,0-16.33,0-24.33,0-.07.24-.13.14-.08l2.75,1.21V185.7c2,.62,1.31,2.8.93,3.33-1.4,1.92-.89,3.94-.9,5.91-.06,10.42,0,20.84,0,31.26A14.4,14.4,0,0,1,147.9,235c0-2.25-.31-4.55.09-6.72s1.53-4.18,2.45-6.56l-3.8-1.81-3.46,3.84,2.46,1.67c.4,3.9-.15,7.31.39,10.62h1.87a8.24,8.24,0,0,1-6.29,2.1V226.61l1-3.29L141,220l-3.54,1.36h-2.09c-1.87-1.28-3.68-1.89-5.28.78C130.37,224.5,130.75,227.13,131.12,229.76Z" transform="translate(0)"/><path class="cls-12" d="M124.83,229.76a8.32,8.32,0,0,1-6.3,2.1v-45c0-2.85-.38-5.78,2-8.07.35-.33,0-1.34,0-2l-1.44-1.44h-4c.47,3.11.91,6,1.35,8.87-1.54,1.1-3,2-4.22,3-3.72,3.28-7.36,6.65-11,10-.48.44-1.16.65-1.63,1.09-3.43,3.2-7.38,5.82-10.44,9.43l-2.73-2.21c-.83-.67-1.67-1.32-2.51-2h1c3.56-1.77,6.16-4.69,9-7.37a55.67,55.67,0,0,1,8.11-7,38.71,38.71,0,0,0,9.12-8.75c1.44,0,1-1.12,1-1.88,0-6.45,0-12.91,0-19.37,0-1.31.12-2.61.19-4,1.5,1.41,2.77,2.59,4.26,4-.41,3.86-.83,7.81-1.2,11.37l1.94,1.05,3.54-2.53-2.58-6c1.8-1.1,3,0,4.33.63l1,3.15v30.28c0,10.09,0,20.19,0,30.28C123.82,228.21,123.08,229.58,124.83,229.76Z" transform="translate(0)"/><path class="cls-13" d="M151.05,114.36c2,.61,1.31,2.79.93,3.31-1.4,1.91-.89,3.92-.9,5.87-.07,7.43,0,14.86,0,22.29l-3.13-2.43V130.65L150,128.5v-3.21l-3.5-1.7-1.4,1.56c.33,5.45.66,10.83,1,16.21-2.2-1.69-5.13-2.2-5.46-4.94l2.33-5.21c-1.59-2.67-3.51-2.33-5.51-1.94v4l-.47,1.15-3.72-4.3c0-4.88-.07-9.76,0-14.64s-.4-9.87.33-14.88a6.2,6.2,0,0,1,4.71,5.15c.61,3.34.08,6.9,0,10.36-1.79,1.56-.42,3.54-.94,5.09l1.85,1.74,3.44-1.7v-3.52l-1.86-1.47v-7.29c2.51.53,3.39,2.65,5.25,3.93-.43,2.58-.88,5.2-1.27,7.83,0,.27.24.59.55,1.28l2.56.93,2.31-1.71L149,116.11l2.07,1.68Z" transform="translate(0)"/><path class="cls-14" d="M89.16,207.73c3.06-3.61,7-6.23,10.44-9.43.47-.44,1.15-.65,1.63-1.09,3.69-3.3,7.33-6.67,11-10,1.24-1.09,2.68-1.95,4.22-3-.44-2.86-.88-5.76-1.35-8.87h4l1.44,1.44c0,.69.3,1.7,0,2-2.43,2.29-2,5.22-2,8.07v45h-2.09q0-21.72,0-43.43c0-.13-.16-.29-.28-.4a6,6,0,0,0-.75-.41l-2.9,2.49c-.32,1.28-.58,2.07-.7,2.88-.2,1.28-.89,3-.32,3.78,1,1.34.74,2.61.75,3.91q.06,13.86,0,27.73a5.18,5.18,0,0,1-.36,1.35h-1.72q0-16.42,0-32.86c0-1.56.08-3.05-2-3.82l-4.33,5.71c0,2.05,0,3.79,0,5.52s-.1,3.7-.15,5.52h-1.94c0-1.72.08-3.44,0-5.15s.44-3.61-.32-5.32l-3.73,3.5c-.49,2.81.67,5.62-1.18,8l-2.09-1v-4.92l-3.15,3.87C90.46,208.62,89.25,209.3,89.16,207.73Z" transform="translate(0)"/><path class="cls-13" d="M83.92,202.48c-2-3.34-3.11-5.88-3.13-7.62,0-.75-.37-1.81,1-1.82v3.55c2-1.54,3.57-2.65,5-3.87,3.59-3,7.14-6.08,10.7-9.12l1-1,1.05-1.05,1-1.05,1-1,1-1.05,1-1v-1.05c.29-.12.85-.24.85-.36,0-3.6,0-7.21,0-10.81,0-.13-.56-.24-.85-.37v-8.39c2-.62.61-2.3,1.05-3.4s-1-2.54,1-2.89l2.09,1.05c1.06,1.25,1.07,2.73,1.07,4.27,0,8.37,0,16.73,0,25.1-3.81,3.29-7.61,6.59-11.44,9.86-1.13,1-2.4,1.77-3.52,2.74-1.53,1.36-3,2.82-4.47,4.21S86.53,200,85,201.43Z" transform="translate(0)"/><path class="cls-13" d="M132.17,60.85c.44-1.72,2.22-1.32,3.3-2.05a12.69,12.69,0,0,1,3-1.1v25L151.05,97V93.37c2,1.26,1.47,3.72.8,4.7-1.34,2-.4,3.91-.8,5.79a12.52,12.52,0,0,1-2-1.48Q143.15,96,137.32,89.59c-1.45-1.6-2.81-3.28-4.1-4.79,0-7.56,0-14.83,0-22.09C133.2,62,133.59,60.86,132.17,60.85Z" transform="translate(0)"/><path class="cls-15" d="M101.75,209.83h1.94c0-1.82.12-3.67.15-5.52s0-3.47,0-5.52l4.33-5.71c2.06.77,2,2.26,2,3.82q0,16.42,0,32.86l-7.34-7.34c.3-.13.85-.24.85-.37,0-3.6,0-7.21,0-10.81,0-.12-.55-.24-.85-.36Z" transform="translate(0)"/><path class="cls-16" d="M79.72,119.6h3c.07.77.19,1.57.19,2.38q0,27.88,0,55.79c0,1.69.12,3.37-1.06,4.78l-2.1-1.05V119.6Z" transform="translate(0)"/><path class="cls-17" d="M110.14,229.76h1.72a5.18,5.18,0,0,0,.36-1.35q0-13.86,0-27.73c0-1.3.26-2.57-.75-3.91-.57-.76.12-2.5.32-3.78.12-.81.38-1.6.7-2.88l2.9-2.49a6,6,0,0,1,.75.41c.12.11.28.27.28.4q0,21.72,0,43.43c-2-.42-4-.81-6-1.27C110.31,230.55,110.25,230.05,110.14,229.76Z" transform="translate(0)"/><path class="cls-18" d="M140.56,57.7c2.1-.18,3.43,1.58,5.25,2.1V80c1.84,2.2,3.39,4,5.24,6.23v-3.3c2,.58,1.3,2.65.93,3.24-1.48,2.37-.7,4.84-.93,7.25-2.38-.49-2.21-3.15-3.8-4.44-2.43-2-4.51-4.35-6.69-6.5Z" transform="translate(0)"/><path class="cls-19" d="M96.5,89.18c0,3.49-.09,7,0,10.48.3,8.77.82,17.53,1,26.3s-.06,17.82.09,26.73c0,2.44.82,4.88,1.3,7.56-2.4.36-4.4.89-5.55-1.61l1-5.86c.35-1.95.84-3.89,1-5.86s0-4.19,0-6.28c0-12.23-.2-24.47.09-36.69.12-4.67-1.3-9.11-1.14-13.72l1-1Z" transform="translate(0)"/><path class="cls-20" d="M151.05,176.25v2.65c-6.11-5.38-11.56-10.41-17.27-15.12-5.09-4.21-10.27-8.31-15-12.93a67.45,67.45,0,0,0-6.34-4.88c-2.09-.18-2.09-.18-4.23-1.52v-3.86l3.32-1.41a16.47,16.47,0,0,1,1.76,2.29c1.32,2.68,2.43,5.51,5.71,6.48.3.08.51.44.77.67,3.67,3.32,7.22,6.79,11.05,9.93s7.33,7,11.63,9.68a17.67,17.67,0,0,1,3.35,3.29,13.25,13.25,0,0,0,5.27,3.69Z" transform="translate(0)"/><path class="cls-21" d="M137.41,133.24v-4c2-.39,3.92-.73,5.51,1.94l-2.33,5.21c.33,2.74,3.26,3.25,5.46,4.94-.32-5.38-.65-10.76-1-16.21l1.4-1.56,3.5,1.7v3.21l-2.05,2.15V143.4l3.13,2.43v3.32c-4.53-3.67-8.7-7-12.81-10.41a13.89,13.89,0,0,1-1.87-2.35l2.16-1.87Z" transform="translate(0)"/><path class="cls-22" d="M79.72,151.08V181.5c-1.94-.89-3.7-2.24-6-2.33-.12,0-.22-.53-.33-.82h2.12c-.1-8.29.12-16.21-.14-24.13h-2C75.24,152.59,77.16,151.19,79.72,151.08Z" transform="translate(0)"/><path class="cls-22" d="M79.72,119.6V150a4.81,4.81,0,0,1-4.19-2.1q0-12.19,0-24.38a.83.83,0,0,0-.17-.44,2.53,2.53,0,0,0-.37-.36H73.43c.11-.29.21-.81.33-.82C76,121.84,77.78,120.49,79.72,119.6Z" transform="translate(0)"/><path class="cls-23" d="M89.16,91.27c1.76.19,1,1.56,1,2.4,0,11,0,22,.06,33,0,3.36-.62,6.78,1,10.07.46,1,.07,2.35.07,3.7H87.43l-1.52-1.52c.36-1.46.43-3.24,1.24-4.57,1.07-1.76,1-3.54,1-5.37q0-18.84,0-37.69Z" transform="translate(0)"/><path class="cls-24" d="M132.17,60.85c1.42,0,1,1.1,1,1.86,0,7.26,0,14.53,0,22.09,1.29,1.51,2.65,3.19,4.1,4.79q5.84,6.43,11.76,12.79a12.52,12.52,0,0,0,2,1.48v3.73L131.12,86.21V63Z" transform="translate(0)"/><path class="cls-25" d="M140.56,57.7V82.43c2.18,2.15,4.26,4.53,6.69,6.5,1.59,1.29,1.42,3.95,3.8,4.44V97L138.46,82.72v-25Z" transform="translate(0)"/><path class="cls-18" d="M135.32,221.37h2.09c.35,2.43.85,4.86,1,7.3s0,5.16.07,7.74c0,.23.4.46.68.76l1.39-.4c0-3,0-5.93.05-8.83,0-.46.65-.89,1-1.33v11.54c-3.82.13-7.1-1-9.44-4.19.35-.26,1-.51,1-.78.09-2,.05-4.05.05-6.29l2.1-1.78Z" transform="translate(0)"/><path class="cls-26" d="M73.43,178.35c-2.76-3-3.93-6.82-5.16-10.53-.55-1.66.16-3.5.86-5.29,1.16-2.94,2.16-5.9,4.3-8.31Z" transform="translate(0)"/><path class="cls-27" d="M73.43,146.88c-3.24-4.36-5.57-9-5.25-14.69a2.58,2.58,0,0,0,2.1-3.15,4,4,0,0,0,0-.49c-.25-1.65,1.35-2.08,2-3.12.52-.82-.8-2.43,1.13-2.68Z" transform="translate(0)"/><path class="cls-28" d="M124.83,229.76c-1.75-.18-1-1.55-1-2.39,0-10.09,0-20.19,0-30.28V166.81c1.44,0,1,1.12,1,1.88,0,7.16,0,14.32,0,21.48,0,12,0,24.09,0,36.14,0,.84-.74,2.21,1,2.4v1Z" transform="translate(0)"/><path class="cls-29" d="M151.05,82.88v3.3c-1.85-2.2-3.4-4-5.24-6.23V59.8h1.05l1,1.05c0,4.15.23,8.31-.06,12.44A12.78,12.78,0,0,0,151.05,82.88Z" transform="translate(0)"/><path class="cls-30" d="M73.43,146.88V122.75H75a2.53,2.53,0,0,1,.37.36.83.83,0,0,1,.17.44q0,12.2,0,24.38Z" transform="translate(0)"/><path class="cls-31" d="M147.9,236.05H146c-.54-3.31,0-6.72-.39-10.62l-2.46-1.67,3.46-3.84,3.8,1.81c-.92,2.38-2,4.4-2.45,6.56s-.09,4.47-.09,6.72Z" transform="translate(0)"/><path class="cls-31" d="M135.32,221.37v3.74l-2.1,1.78c0,2.24,0,4.26-.05,6.29,0,.27-.65.52-1,.78a5.63,5.63,0,0,1-1-4.2c-.37-2.63-.75-5.26-1.08-7.61C131.64,219.48,133.45,220.09,135.32,221.37Z" transform="translate(0)"/><path class="cls-17" d="M96.5,210.88c1.85-2.4.69-5.21,1.18-8l3.73-3.5c.76,1.71.21,3.56.32,5.32s0,3.43,0,5.15Z" transform="translate(0)"/><path class="cls-32" d="M79.72,106l2.49-1.29,2.64,3.67a16.65,16.65,0,0,1-3,5C80.91,110.92,79.55,108.66,79.72,106Z" transform="translate(0)"/><path class="cls-33" d="M102.8,78.68h1.68a4.76,4.76,0,0,1,.4,1.28c0,2-.12,4.1.06,6.13a46.43,46.43,0,0,0,1,5.18h-1l-1.05-1C102.4,86.48,102.84,82.56,102.8,78.68Z" transform="translate(0)"/><path class="cls-34" d="M102.8,210.88c.3.12.85.24.85.36,0,3.6,0,7.21,0,10.81,0,.13-.55.24-.85.37Z" transform="translate(0)"/><path class="cls-35" d="M91.26,208.78l3.15-3.87v4.92Z" transform="translate(0)"/><path class="cls-36" d="M70.28,129a2.58,2.58,0,0,1-2.1,3.15A2.58,2.58,0,0,1,70.28,129Z" transform="translate(0)"/><path class="cls-37" d="M101.75,92.32c-1.57-.09-.89-1.3-1-2.09h2.1v1Z" transform="translate(0)"/><path class="cls-38" d="M123.78,68.19l-1-1c.79.16,2-.52,2.1,1Z" transform="translate(0)"/><path class="cls-39" d="M123.78,68.19h2.1l-1.31,1Z" transform="translate(0)"/><path class="cls-40" d="M83.92,202.48l1-1v2.1h-1Z" transform="translate(0)"/><path class="cls-41" d="M83.92,182.55c.09-1.57,1.3-.89,2.1-1.05v1.05h-2.1Z" transform="translate(0)"/><path class="cls-42" d="M102.8,91.27v-1h1l1.05,1Z" transform="translate(0)"/><path class="cls-10" d="M95.46,89.18l-1,1Z" transform="translate(0)"/><path class="cls-18" d="M147.9,60.85l-1-1.05Z" transform="translate(0)"/><path class="cls-10" d="M109.09,70.29l1-1.05Z" transform="translate(0)"/><path class="cls-43" d="M244.41,115.4l-2.11,2.95a58,58,0,0,1,6.33,1.31,11.34,11.34,0,0,1,3.77,2.22,28.54,28.54,0,0,1,6.69,8.21l-1,.8,1,1.3c.25.9.49,1.8.87,3.18-4.91,13.5-4.7,10.64-11.44,15.29l5.33,3.56a7.8,7.8,0,0,0-1.11,3.76c.17,4.52.06,9.06.06,13.57,1.38,1,2,3.08,4.2,2.61a62.11,62.11,0,0,1-5.15,5.58c-2.42,2.06-5.71,2-8.64,2.79a13.8,13.8,0,0,1-2.5.14l3.7,3c-.3.12-.85.24-.85.36-.05,5.11,0,10.22,0,15.45l1.94-1.13c.28,1.44-.29,2.22-1.77,2.3-.53,3.11-3.52,3.79-5.5,5.41-2.47,2-5.74,2.08-8.72,2.72-.65.14-1.45-.63-2.23-.81a21.16,21.16,0,0,0-2.72-.23c.36,2.87,1.23,5.53.85,8s-.77,5-3,6.74V212h-3.83c-1.33,3.22-2,4.89-1.23,5.7,1.32,1.43.74,2.94.84,4.4.12,1.91,0,3.84.07,5.76,0,.29.65.55,1,.83-5.09,3-10.9,4-15.72,2.6,0,0,0-.33,0-.5h8.18V212h-9.36a13.24,13.24,0,0,0-.88,3.17c-.1,4.5,0,9,0,13.51l-4-2.57v4.43a34.81,34.81,0,0,1-3.08,4.59,28.28,28.28,0,0,1-3.92,3h-7.31c-2.28-2.14-4.73-4.19-5.83-7.33h8.39c0-6.26,0-12.17,0-18.08a.86.86,0,0,0-.17-.45,3.17,3.17,0,0,0-.37-.36h-8.89V173.11c2.43,1.83,5.25.74,7.82,1.09l1.52-1.52V154.22h-9.34V115.4c2.43,1.83,5.25.75,7.82,1.1l1.52-1.52V96.52h-9.34c0-5,.3-10.09-.09-15.09-.38-4.83,1.14-9.4,1.2-14.14,0-1.21.83-2.42,1.61-4.55l4.62-4c.79-.16,2,.52,2.1-1,1.78.37,3.55-.39,5.45.59,2.79,1.43,5.31,2.68,6.17,6.12.41,1.64,2.13,2.87,2,4.83l-.61,1.19-.76-2.1H192.2V86.92h9.2c0-5.55,0-10.94,0-16.32,0-.46-.66-.91-1-1.36.69-2,3.21-.41,4.06-2.1,4.33.13,8.85-.83,12.73,2.1,0,4.86-.06,9.73,0,14.58a13.35,13.35,0,0,0,.92,3.26c2.14,0,3.85,0,5.56,0,.29,0,.55-.65.82-1h1.05a14.34,14.34,0,0,1-.74,2.27,36.71,36.71,0,0,1-2.23,3.25c3.41-1,5.78-2.25,8.14-2.22a20.94,20.94,0,0,1,7.88,2c2.37,1.06,4.66,2.57,5.83,5.16l-2,5.89c2.07,3.74.36,7.78,1,11.64C243.47,114.54,244.06,115,244.41,115.4Zm-17,85.69V183.94L226,182.5c-2.8.59-6.05-1.09-8.77,1.32v17.39c2.72,2.41,6,.74,8.77,1.33ZM201.59,97.91v17.16l1.25,1.24h7.62L211.8,115V98c-2.21-1.51-2.21-1.51-8.92-1.36Zm26.22-1.28v18.43l1.34,1.35h5.95l3-2.52c0-5,0-9.5-.05-14a13.86,13.86,0,0,0-.85-3.21Zm-16,57.77h-9l-1.3,1.31v16.63c2.4,2.35,5.16,1.76,7.42,1.8l2.88-1.47Zm42-26.84h-.68L251.51,125h-6.72l-1.46,1.46c.17,6-.22,12.16.23,18.32h8.73l1.53-1.53Zm-24.62,46.6h6.29L238,171.7V155.63l-1.29-1.28h-8.9v18.37ZM227.6,126c-3.79-2-7.16-1.46-10.4.41v16.78l1.46,1.61h7.41l1.53-1.53Zm-34.16,56.67c-.43.43-1.12.8-1.12,1.17-.07,6.16,0,12.33,0,18.41h8.85c0-6.3,0-12.34-.05-18.38,0-.37-.69-.74-1.15-1.2Zm-1.34-56.36v18.27h9.19V126.31L200,125h-6.54Zm26.61,27.94c-1.34,2.18-2.48,4.64-1.22,7a7.85,7.85,0,0,1,.67,3.89c.09,2.77,0,5.54.05,8.31,0,.26.37.5.82,1.08l3.17-1.38c0-6.48,0-12.5,0-18.53,0-.12-.24-.23-.36-.35ZM238,125.68l-3.56-1a29.66,29.66,0,0,0-1.21,3.58c-.22,1.13-.7,2.77-.16,3.39,1.38,1.59.79,3.26.86,4.88.12,2.72,0,5.44,0,8.16h4ZM218.18,96.62a6.3,6.3,0,0,1,0,1.95c-.92,2-1.92,3.86,0,6,.43.48.06,1.68.06,2.55,0,2.77,0,5.54,0,8.31a3.61,3.61,0,0,0,.4,1.07,4.89,4.89,0,0,0,1.91,0,7.16,7.16,0,0,0,1.71-1.34V96.62Zm-6.42,86.26c-1.57-.77-3.28-.48-3.54.88-.39,2-2.43,3.65-1.24,6a6.65,6.65,0,0,1,.68,2.82c.09,2.94,0,5.88.05,8.83a4,4,0,0,0,.41,1.09l3.64-.19Zm22.42-.82c-.54,3-1.81,5.51-1.08,7.12.87,1.92.69,3.63.79,5.43.13,2.27,0,4.55.05,6.82a3.42,3.42,0,0,0,.41,1,4.9,4.9,0,0,0,2,0,7.87,7.87,0,0,0,1.76-1.43V183.6Zm-43.08-22.5a18.48,18.48,0,0,1,.82,3.61c.12,3.29,0,6.59.06,9.89a4.27,4.27,0,0,0,.39,1.12L196,174V154.45h-3.7C191.87,156.32,191.5,157.9,191.1,159.56Zm20.62-14.9V124.94c-1.56-.26-3.23-.22-3.61,1.2-.5,1.84-2.35,3.81-1.25,5.52,1,1.54.75,2.91.8,4.37.11,2.88,0,5.78,0,8.63Zm-19.89-28.38h4.11V96.66c-4.92-1-3.37,3.61-5.27,5.21.51.59,1.12,1,1.12,1.34C191.86,107.5,191.83,111.8,191.83,116.28Zm50.46,43.12a10.34,10.34,0,0,1,1,2.69c.09,3.32,0,6.64.06,10a2.58,2.58,0,0,0,.35.9c.37.37.68,1,1.12,1.07a12.46,12.46,0,0,0,2.46.16V154.37C242.6,153.29,243.89,157.67,242.29,159.4Zm-61.64,28.92a6.85,6.85,0,0,1,.78,2.15c.09,3.63,0,7.27.06,10.91a4.56,4.56,0,0,0,.38,1.12l3.68-.17V182.7h-2.74ZM211.73,87V68.17l-3.86.17c-.22,1.2-.35,2-.53,2.82-.2,1-.94,2.41-.59,2.74,1.59,1.49.83,3.25.91,4.87.13,2.72,0,5.45,0,8.2ZM181.47,144.6h3.95V124.86H183.1c-1.62,3.32-1.62,3.32-1.63,6.06Zm10.68,86h3.77V212.07h-3.6c-.42,1.9-.81,3.64-1.19,5.34C193,221.6,191.34,226.13,192.15,230.63ZM185.52,87V68.51c-1.92-1-3,0-4.05,1.28-.14,1.45.56,3.1-1,4.21,1.49.94.95,2.44,1,3.74.06,1.56,0,3.12,0,4.68V87Z" transform="translate(0)"/><path class="cls-44" d="M201.4,228.71c0-4.5-.06-9,0-13.51a13.24,13.24,0,0,1,.88-3.17h9.36v18.78H203.5a16.68,16.68,0,0,1-1.3-1.06A9.24,9.24,0,0,1,201.4,228.71Zm6.11-1.15V215.18h-1.73v12.38Z" transform="translate(0)"/><path class="cls-45" d="M176.23,96.52h9.34V115l-1.52,1.52c-2.57-.35-5.39.73-7.82-1.1Zm3.14,4.72c0,2.79.14,5.87,0,8.94-.15,2.57,1.26,2.24,3,1.86V100.93l-.57.44-.69-1.85Z" transform="translate(0)"/><path class="cls-45" d="M176.23,154.22h9.34v18.46l-1.52,1.52c-2.57-.35-5.39.74-7.82-1.09Zm6.29,15.64c0-3.33.1-6.58-.06-9.81-.05-.92-.86-1.8-1.64-3.33-2.61,4.76-.84,9-1.57,13.14Z" transform="translate(0)"/><path class="cls-46" d="M176.23,211.92h8.89a3.17,3.17,0,0,1,.37.36.86.86,0,0,1,.17.45c0,5.91,0,11.82,0,18.08h-8.39c-1.51-3.93-1-8-1.05-12.1C176.21,216.45,176.23,214.19,176.23,211.92Zm4.66,16.48c2.92-4.76,1-9.05,1.8-13.39l-3.53.25C180,219.52,178.27,223.72,180.89,228.4Z" transform="translate(0)"/><path class="cls-47" d="M200.35,69.24c.35.45,1,.9,1,1.36.07,5.38,0,10.77,0,16.32h-9.2V68.33h5.73l.76,2.1.61-1.19Zm-5.07,2.21V84.33l2.78-1.68V71.45Z" transform="translate(0)"/><path class="cls-48" d="M257,174.16c-2.22.47-2.82-1.65-4.2-2.61,0-4.51.11-9.05-.06-13.57a7.8,7.8,0,0,1,1.11-3.76l3.26,3.65v11.84l1.59.36c-.22,1-.44,2-.65,3Z" transform="translate(0)"/><path class="cls-47" d="M224.48,86c-.27.35-.53,1-.82,1-1.71.1-3.42,0-5.56,0a13.35,13.35,0,0,1-.92-3.26c-.1-4.85,0-9.72,0-14.58l4.19,4.2c0,1.71,0,3.41,0,5.12s.09,3.6.14,5.37h2C225,84,224.32,85.23,224.48,86Z" transform="translate(0)"/><path class="cls-49" d="M219.23,228.71c-.35-.28-1-.54-1-.83-.09-1.92.05-3.85-.07-5.76-.1-1.46.48-3-.84-4.4-.76-.81-.1-2.48,1.23-5.7h3.83v12.49C222.54,226.82,220.92,227.79,219.23,228.71Z" transform="translate(0)"/><path class="cls-50" d="M244.41,115.4c-.35-.45-.94-.86-1-1.35-.61-3.86,1.1-7.9-1-11.64l2-5.89c2,.85,1.29,3.55,3.12,4.57C247.52,106.12,248.26,111.25,244.41,115.4Z" transform="translate(0)"/><path class="cls-51" d="M245.46,200.38l-1.94,1.13c0-5.23,0-10.34,0-15.45,0-.12.55-.24.85-.36.35,1.06.67,2.13,1.05,3.17A15.87,15.87,0,0,1,245.46,200.38Z" transform="translate(0)"/><path class="cls-52" d="M223.43,83.93h-2c0-1.77-.12-3.57-.14-5.37s0-3.41,0-5.12c2,.23.41,1.93,1,2.34l2.18,1.86c-.35.42-1,.82-1,1.27C223.36,80.57,223.43,82.26,223.43,83.93Z" transform="translate(0)"/><path class="cls-53" d="M223.43,83.93c0-1.67-.07-3.36,0-5,0-.45.65-.85,1-1.27-.12,2.85,1.8,5.45,1.05,8.39h-1.05C224.32,85.23,225,84,223.43,83.93Z" transform="translate(0)"/><path class="cls-54" d="M185.67,57.7c-.09,1.57-1.31.89-2.1,1C183.66,57.18,184.87,57.86,185.67,57.7Z" transform="translate(0)"/><path class="cls-55" d="M259.09,132.19l-1-1.3,1-.8Z" transform="translate(0)"/><path class="cls-43" d="M257,174.16l1.05-1Z" transform="translate(0)"/><path class="cls-21" d="M125.88,228.71c-1.76-.19-1-1.56-1-2.4,0-12.05,0-24.1,0-36.14,0-7.16,0-14.32,0-21.48,0-.76.41-1.86-1-1.88l-1-3.15,1-1,1,1,1,1.05,1,1,2.1,1.05,1,1.05,1.05,1,1,1.05a88,88,0,0,1,9.31,7.63c3,2.92,6.36,5.42,9.57,8.11v2.46L148.3,187c.1,0-.14,0-.14.08,0,8,0,16,0,24.33l2.27,5-3.83,2-1.94-1.74c2.06-10.12.8-20.63,1.21-31-.93-2.53-2.24-4.48-5.12-5.08V196.5l2.42,5.26-3.46,2.39-2.22-.93c-.55-4.1,1.5-8.12,1.08-12.4s-.1-8.71-.1-13.33l-5.24-3.68v13.93c0,3.67,0,7.34,0,11,0,2.85-.38,5.72,1.73,8.23.63.75.33,2.27.45,3.37l-3.81,1.92-1.3-3.44c1.53-4.8.73-11.35.81-17.84s0-12.94,0-19.64l-4.2-3.49-.34-.87-.7.87Z" transform="translate(0)"/><path class="cls-56" d="M151.05,114.36v3.43L149,116.11l1.22,5.08-2.31,1.71-2.56-.93c-.31-.69-.59-1-.55-1.28.39-2.63.84-5.25,1.27-7.83-1.86-1.28-2.74-3.4-5.25-3.93v7.29l1.86,1.47v3.52l-3.44,1.7-1.85-1.74c.52-1.55-.85-3.53.94-5.09.05-3.46.58-7,0-10.36a6.2,6.2,0,0,0-4.71-5.15c-.73,5-.24,10-.33,14.88s0,9.76,0,14.64c-.16.8.52,2-1.05,2.1-1.76-.19-1-1.56-1-2.4-.06-9.26-.16-18.52,0-27.78.07-3.52-.91-6.29-3.71-8.54-1.42-.45-3.48.67-4.62-1.79V88.09l3.74-1.45c2.72,6.76,8.62,10.44,12.72,15.63,3.11,4,6.71,7.35,10.12,11A10,10,0,0,0,151.05,114.36Z" transform="translate(0)"/><path class="cls-57" d="M109.09,70.29l1-1.05h1.92c.06.78.17,1.59.17,2.4,0,14.66,0,29.32,0,44,0,4.58.42,9.14.68,14.34l-1.62,1.2-3-1.28c-.1-.25-.37-.58-.32-.85,2.13-11.5.67-23.1,1-34.65C109.27,86.35,109.09,78.32,109.09,70.29Z" transform="translate(0)"/><path class="cls-28" d="M133.22,153.17a34.65,34.65,0,0,1-8.28-6.64c-.78-.8-2-1.12-2.84-1.91-2-2-3.95-4.17-5.66-6V105.55c0-2.27.16-4.56,0-6.81a48.73,48.73,0,0,0-1.21-5.7c2.71-2.15,2.71-2.15,5.25-.39.71,2.51-.19,4.57-1.9,6.59,0,10.83.3,21.85-.13,32.83a12.18,12.18,0,0,0,5.71,11.23,62.63,62.63,0,0,1,5,4.23c1.75,1.49,3.43,3.06,5.14,4.59Z" transform="translate(0)"/><path class="cls-58" d="M108,151.08,106,150l-2.1-1.65V177.3l-1,1-1,1.05-1,1-1,1.05-1.05,1.05-1,1c-3.56,3-7.11,6.1-10.7,9.12-1.46,1.22-3,2.33-5,3.87V193A2.73,2.73,0,0,0,84.49,192c2.83-3.34,6.42-5.81,9.92-8.38l1-1,1-1.05,1-1.05,4.2-4.2c1.75-.18,1-1.56,1-2.4.06-10.3,0-20.6,0-30.91,0-10.47,0-21,0-31.43,0-.84.74-2.21-1-2.4v-1l-1-1c.4-1-1-2.65,1-3.15l1-1h1l1.05,1,1,1V107l-1,1v1c-1.74.18-1,1.54-1,2.37,0,9,0,18,0,27v5.24c.16.8-.52,2,1.05,2.1l2.09,2.1,1.05,1,1,1.05Z" transform="translate(0)"/><path class="cls-59" d="M86,182.55V181.5a13.78,13.78,0,0,0,2.14-8.05c-.15-7.16,0-14.33,0-20.78l-2.52-6.83c2.82-2.45,2.82-2.45,5.71-.62-2.12,10-.56,20.36-1.22,30.84,2.48-1.83,2.48-1.83,3.28-3.94,1-2.62,2.08-2.79,5.13-.74v3.91c-4,.89-7.27,3.46-10.38,6.21l-1,1.05Z" transform="translate(0)"/><path class="cls-28" d="M123.78,162.62l-1,1c-1.31-.59-2.53-1.73-4.33-.63l2.58,6-3.54,2.53-1.94-1.05c.37-3.56.79-7.51,1.2-11.37-1.49-1.38-2.76-2.56-4.26-4-.07,1.39-.19,2.69-.19,4,0,6.46,0,12.92,0,19.37,0,.76.41,1.87-1,1.88h-1c0-8.65,0-17.3,0-25.95,0-.84-.72-2.2,1-2.38a14.79,14.79,0,0,1,5.29,3.67C118.83,158.15,121.34,160.35,123.78,162.62Z" transform="translate(0)"/><path class="cls-60" d="M131.12,141.63a28.43,28.43,0,0,1-3.77-2.25,8.91,8.91,0,0,1-3.62-7.4c.16-5.93.14-11.87,0-17.8-.09-4.41.7-8.88-1-13.2a6.51,6.51,0,0,1,0-2.59l1.64-2,3.26,1.45a2.53,2.53,0,0,1,.33.8c0,.87.37,2,0,2.58-2.56,3.63-2,7.73-2,11.74,0,5.59-.09,11.17,0,16.76a21.51,21.51,0,0,0,1.08,5.82c.25.79,1.38,1.28,2.06,1.95,1.06,1,2.08,2.09,3.11,3.14Z" transform="translate(0)"/><path class="cls-61" d="M101.75,109.11c1.75.19,1,1.56,1,2.4.06,10.48,0,21,0,31.43,0,10.31,0,20.61,0,30.91,0,.84.74,2.22-1,2.4Z" transform="translate(0)"/><path class="cls-24" d="M131.12,141.63l1-1a84.23,84.23,0,0,1,10.41,8.74c2.58,2.57,5.63,4.68,8.47,7v1.86c-.67.12-1.13.35-1.29.21-3.09-2.58-6.17-5.17-9.18-7.84-2.12-1.9-3.92-4.11-6.49-5.55C132.86,144.31,132.09,142.78,131.12,141.63Z" transform="translate(0)"/><path class="cls-62" d="M133.22,153.17l1.05-1a85.94,85.94,0,0,1,9.36,7.69,80.84,80.84,0,0,0,7.42,5.95v3.44c-4.17-3.71-7.9-7.06-11.66-10.37C137.29,157,134.42,156,133.22,153.17Z" transform="translate(0)"/><path class="cls-20" d="M116.44,67.14h1.82v6.53l.54-.1,2.25,6.14c-2.78,2.45-2.78,2.45-5.78.61.37-2,.92-4.2,1.12-6.42S116.44,69.4,116.44,67.14Z" transform="translate(0)"/><path class="cls-61" d="M111.19,152.12c-1.74.18-1,1.54-1,2.38,0,8.65,0,17.3,0,25.95h-1c0-8.37,0-16.73,0-25.1,0-1.54,0-3-1.07-4.27l1-1.05h1l1,1.05Z" transform="translate(0)"/><path class="cls-61" d="M103.85,138.49c0-9,0-18,0-27,0-.83-.72-2.19,1-2.37,0,9,0,18,0,27C104.86,137,105.59,138.31,103.85,138.49Z" transform="translate(0)"/><path class="cls-63" d="M132.17,132.19c1.57-.09.89-1.3,1.05-2.1l3.72,4.3.47-1.15,1.12,1.28-2.16,1.87Z" transform="translate(0)"/><path class="cls-64" d="M102.8,91.27H106c-.56,1.65-2.3,1.37-3.44,2.06a10.68,10.68,0,0,1-.76-1Z" transform="translate(0)"/><path class="cls-61" d="M104.9,145.83c-1.57-.09-.89-1.3-1.05-2.1C105.42,143.82,104.74,145,104.9,145.83Z" transform="translate(0)"/><path class="cls-61" d="M100.7,107l1,1Z" transform="translate(0)"/><path class="cls-28" d="M124.83,163.66l-1-1Z" transform="translate(0)"/><path class="cls-28" d="M125.88,164.71l-1-1.05Z" transform="translate(0)"/><path class="cls-28" d="M126.92,165.76l-1-1Z" transform="translate(0)"/><path class="cls-28" d="M131.12,168.91l-1.05-1Z" transform="translate(0)"/><path class="cls-13" d="M111.19,151.08l-1-1.05Z" transform="translate(0)"/><path class="cls-61" d="M95.46,182.55l-1,1Z" transform="translate(0)"/><path class="cls-41" d="M87.06,182.55l1-1.05Z" transform="translate(0)"/><path class="cls-13" d="M110.14,150h-1V149Z" transform="translate(0)"/><path class="cls-61" d="M97.55,180.45l-1,1.05Z" transform="translate(0)"/><path class="cls-13" d="M108,147.93l1,1h-1Z" transform="translate(0)"/><path class="cls-61" d="M108,147.93v1l-1.05-1Z" transform="translate(0)"/><path class="cls-41" d="M86,182.55h1l-.7.87Z" transform="translate(0)"/><path class="cls-28" d="M130.07,167.86l-1-1.05Z" transform="translate(0)"/><path class="cls-61" d="M102.8,102.82l-1,1Z" transform="translate(0)"/><path class="cls-61" d="M104.9,103.86l-1.05-1Z" transform="translate(0)"/><path class="cls-61" d="M106,104.91l-1-1Z" transform="translate(0)"/><path class="cls-28" d="M132.17,170l-1-1.05Z" transform="translate(0)"/><path class="cls-61" d="M104.9,108.06l1-1Z" transform="translate(0)"/><path class="cls-61" d="M96.5,181.5l-1,1.05Z" transform="translate(0)"/><path class="cls-65" d="M141.61,226.61c-.35.44-1,.87-1,1.33-.09,2.9-.05,5.82-.05,8.83l-1.39.4c-.28-.3-.67-.53-.68-.76,0-2.58.11-5.17-.07-7.74s-.66-4.87-1-7.3L141,220l1.69,3.31Z" transform="translate(0)"/><path class="cls-28" d="M125.88,167.86l.7-.87.34.87Z" transform="translate(0)"/><path class="cls-66" d="M109.09,180.45h2.1a38.71,38.71,0,0,1-9.12,8.75,55.67,55.67,0,0,0-8.11,7c-2.83,2.68-5.43,5.6-9,7.37v-2.1c1.56-1.39,3.14-2.76,4.69-4.17s2.94-2.85,4.47-4.21c1.12-1,2.39-1.78,3.52-2.74C101.48,187,105.28,183.74,109.09,180.45Z" transform="translate(0)"/><path class="cls-61" d="M103.85,176.25V164.71c.29.13.85.24.85.37,0,3.6,0,7.21,0,10.81C104.7,176,104.14,176.13,103.85,176.25Z" transform="translate(0)"/><path class="cls-61" d="M103.85,156.32v-7.94L106,150c-2,.35-.68,1.93-1,2.89S105.88,155.7,103.85,156.32Z" transform="translate(0)"/><path class="cls-61" d="M98.6,182.55l1.05-1.05Z" transform="translate(0)"/><path class="cls-61" d="M97.55,183.6l1-1Z" transform="translate(0)"/><path class="cls-61" d="M99.65,181.5l1-1.05Z" transform="translate(0)"/><path class="cls-61" d="M100.7,180.45l1-1Z" transform="translate(0)"/><path class="cls-61" d="M102.8,178.35l1-1Z" transform="translate(0)"/><path class="cls-30" d="M73.43,178.35V154.22h2c.26,7.92,0,15.84.14,24.13Z" transform="translate(0)"/><path class="cls-67" d="M227.44,201.09,226,202.54c-2.8-.59-6.05,1.08-8.77-1.33V183.82c2.72-2.41,6-.73,8.77-1.32l1.44,1.44Zm-4.19-2.9V186.85h-1.74v11.34Z" transform="translate(0)"/><path class="cls-67" d="M201.59,97.91l1.29-1.3c6.71-.15,6.71-.15,8.92,1.36v17l-1.34,1.34h-7.62l-1.25-1.24Zm5.93,14.25V99.77h-1.74v12.39Z" transform="translate(0)"/><path class="cls-68" d="M227.81,96.63h9.41a13.86,13.86,0,0,1,.85,3.21c.1,4.55.05,9.09.05,14l-3,2.52h-5.95l-1.34-1.35Zm5.94,15.53V100.91l-.66.49-.6-1.89-.49.39v12.26Z" transform="translate(0)"/><path class="cls-69" d="M211.79,154.4v18.27l-2.88,1.47c-2.26,0-5,.55-7.42-1.8V155.71l1.3-1.31Zm-4.27,15.46V157.47h-1.74v12.39Z" transform="translate(0)"/><path class="cls-68" d="M253.82,127.56v15.68l-1.53,1.53h-8.73c-.45-6.16-.06-12.35-.23-18.32l1.46-1.46h6.72l1.63,2.57Zm-4.17,14.07c0-2.86,0-5.75,0-8.64,0-1.32-.11-2.64-.17-4.09l-2.15.43c.26,4.17.51,8.23.78,12.3Z" transform="translate(0)"/><path class="cls-70" d="M229.2,174.16l-1.44-1.44V154.35h8.9l1.29,1.28V171.7l-2.46,2.46Zm4.55-4.29V157.46H232v12.41Z" transform="translate(0)"/><path class="cls-44" d="M227.6,126v17.27l-1.53,1.53h-7.41l-1.46-1.61V126.38C220.44,124.51,223.81,124,227.6,126ZM221.33,129c0,2.86,0,5.76,0,8.65,0,1.32.1,2.64.16,4.09l2.16-.44c-.26-4.16-.51-8.23-.78-12.3Z" transform="translate(0)"/><path class="cls-47" d="M193.44,182.64h6.48c.46.46,1.15.83,1.15,1.2.07,6,.05,12.08.05,18.38h-8.85c0-6.08,0-12.25,0-18.41C192.32,183.44,193,183.07,193.44,182.64Zm1.85,4.2v11.35h2.79V186.84Z" transform="translate(0)"/><path class="cls-71" d="M192.1,126.28l1.31-1.31H200l1.34,1.34v18.24H192.1Zm4.66,16.18c.75-1.8,1.39-2.67,1.44-3.57.15-2.58-.09-5.19.09-7.76s-1.25-2.24-3.29-1.81C195.78,133.31,193.85,137.59,196.76,142.46Z" transform="translate(0)"/><path class="cls-72" d="M218.71,154.22h3.12c.12.12.36.23.36.35,0,6,0,12.05,0,18.53L219,174.48c-.45-.58-.82-.82-.82-1.08,0-2.77,0-5.54-.05-8.31a7.85,7.85,0,0,0-.67-3.89C216.23,158.86,217.37,156.4,218.71,154.22Z" transform="translate(0)"/><path class="cls-73" d="M238,125.68v19h-4c0-2.72.09-5.44,0-8.16-.07-1.62.52-3.29-.86-4.88-.54-.62-.06-2.26.16-3.39a29.66,29.66,0,0,1,1.21-3.58Z" transform="translate(0)"/><path class="cls-74" d="M218.18,96.62h4v18.44a7.16,7.16,0,0,1-1.71,1.34,4.89,4.89,0,0,1-1.91,0,3.61,3.61,0,0,1-.4-1.07c0-2.77,0-5.54,0-8.31,0-.87.37-2.07-.06-2.55-1.88-2.09-.88-4,0-6A6.3,6.3,0,0,0,218.18,96.62Z" transform="translate(0)"/><path class="cls-75" d="M211.76,182.88v19.43l-3.64.19a4,4,0,0,1-.41-1.09c0-2.95,0-5.89-.05-8.83a6.65,6.65,0,0,0-.68-2.82c-1.19-2.35.85-4,1.24-6C208.48,182.4,210.19,182.11,211.76,182.88Z" transform="translate(0)"/><path class="cls-76" d="M234.18,182.06l3.88,1.54V201a7.87,7.87,0,0,1-1.76,1.43,4.9,4.9,0,0,1-2,0,3.42,3.42,0,0,1-.41-1c0-2.27.08-4.55-.05-6.82-.1-1.8.08-3.51-.79-5.43C232.37,187.57,233.64,185.06,234.18,182.06Z" transform="translate(0)"/><path class="cls-45" d="M191.1,159.56c.4-1.66.77-3.24,1.22-5.11H196V174l-3.65.18a4.27,4.27,0,0,1-.39-1.12c0-3.3.06-6.6-.06-9.89A18.48,18.48,0,0,0,191.1,159.56Z" transform="translate(0)"/><path class="cls-45" d="M211.72,144.66h-4c0-2.85.07-5.75,0-8.63,0-1.46.19-2.83-.8-4.37-1.1-1.71.75-3.68,1.25-5.52.38-1.42,2-1.46,3.61-1.2Z" transform="translate(0)"/><path class="cls-71" d="M191.83,116.28c0-4.48,0-8.78,0-13.07,0-.38-.61-.75-1.12-1.34,1.9-1.6.35-6.2,5.27-5.21v19.62Z" transform="translate(0)"/><path class="cls-77" d="M242.29,159.4c1.6-1.73.31-6.11,5-5v19.81a12.46,12.46,0,0,1-2.46-.16c-.44-.12-.75-.7-1.12-1.07a2.58,2.58,0,0,1-.35-.9c0-3.32,0-6.64-.06-10A10.34,10.34,0,0,0,242.29,159.4Z" transform="translate(0)"/><path class="cls-78" d="M180.65,188.32l2.16-5.62h2.74v19.63l-3.68.17a4.56,4.56,0,0,1-.38-1.12c0-3.64,0-7.28-.06-10.91A6.85,6.85,0,0,0,180.65,188.32Z" transform="translate(0)"/><path class="cls-79" d="M211.73,87h-4c0-2.75.09-5.48,0-8.2-.08-1.62.68-3.38-.91-4.87-.35-.33.39-1.79.59-2.74.18-.8.31-1.62.53-2.82l3.86-.17Z" transform="translate(0)"/><path class="cls-80" d="M181.47,144.6V130.92c0-2.74,0-2.74,1.63-6.06h2.32V144.6Z" transform="translate(0)"/><path class="cls-81" d="M192.15,230.63c-.81-4.5.83-9-1-13.22.38-1.7.77-3.44,1.19-5.34h3.6v18.56Z" transform="translate(0)"/><path class="cls-80" d="M185.52,87h-4.05V82.42c0-1.56.05-3.12,0-4.68-.05-1.3.49-2.8-1-3.74,1.57-1.11.87-2.76,1-4.21,1-1.23,2.13-2.28,4.05-1.28Z" transform="translate(0)"/><path class="cls-82" d="M207.51,227.56h-1.73V215.18h1.73Z" transform="translate(0)"/><path class="cls-83" d="M179.37,101.24l1.72-1.72.69,1.85.57-.44V112c-1.76.38-3.17.71-3-1.86C179.51,107.11,179.37,104,179.37,101.24Z" transform="translate(0)"/><path class="cls-84" d="M182.52,169.86h-3.27c.73-4.13-1-8.38,1.57-13.14.78,1.53,1.59,2.41,1.64,3.33C182.62,163.28,182.52,166.53,182.52,169.86Z" transform="translate(0)"/><path class="cls-85" d="M180.89,228.4c-2.62-4.68-.88-8.88-1.73-13.14l3.53-.25C181.84,219.35,183.81,223.64,180.89,228.4Z" transform="translate(0)"/><path class="cls-86" d="M195.28,71.45h2.78v11.2l-2.78,1.68Z" transform="translate(0)"/><path class="cls-61" d="M108,149h1V150Z" transform="translate(0)"/><path class="cls-87" d="M223.25,198.19h-1.74V186.85h1.74Z" transform="translate(0)"/><path class="cls-87" d="M207.52,112.16h-1.74V99.77h1.74Z" transform="translate(0)"/><path class="cls-88" d="M233.75,112.16H232V99.9l.49-.39.6,1.89.66-.49Z" transform="translate(0)"/><path class="cls-82" d="M207.52,169.86h-1.74V157.47h1.74Z" transform="translate(0)"/><path class="cls-89" d="M249.65,141.63h-1.54c-.27-4.07-.52-8.13-.78-12.3l2.15-.43c.06,1.45.16,2.77.17,4.09C249.67,135.88,249.65,138.77,249.65,141.63Z" transform="translate(0)"/><path class="cls-90" d="M233.75,169.87H232V157.46h1.76Z" transform="translate(0)"/><path class="cls-91" d="M221.33,129h1.55c.27,4.07.52,8.14.78,12.3l-2.16.44c-.06-1.45-.15-2.77-.16-4.09C221.32,134.8,221.33,131.9,221.33,129Z" transform="translate(0)"/><path class="cls-92" d="M195.29,186.84h2.79v11.35h-2.79Z" transform="translate(0)"/><path class="cls-86" d="M196.76,142.46c-2.91-4.87-1-9.15-1.76-13.14,2-.43,3.47-.77,3.29,1.81s.06,5.18-.09,7.76C198.15,139.79,197.51,140.66,196.76,142.46Z" transform="translate(0)"/></g></g></svg>